<svg xmlns="http://www.w3.org/2000/svg" viewBox="3186.7 1016.4 245.7 261.0"><g id="Brutalist 72">
<path id="Vector_76" d="M3309.57 1272.34C3374.65 1272.34 3427.41 1252.03 3427.41 1226.97C3427.41 1201.91 3374.65 1181.6 3309.57 1181.6C3244.49 1181.6 3191.73 1201.91 3191.73 1226.97C3191.73 1252.03 3244.49 1272.34 3309.57 1272.34Z" fill="white"/>
<path id="Vector_77" d="M3309.57 1181.6C3360.52 1181.6 3401.82 1165.72 3401.82 1146.12C3401.82 1126.53 3360.52 1110.65 3309.57 1110.65C3258.62 1110.65 3217.31 1126.53 3217.31 1146.12C3217.31 1165.72 3258.62 1181.6 3309.57 1181.6Z" fill="white"/>
<path id="Vector_78" d="M3309.57 1110.65C3346.98 1110.65 3377.31 1098.97 3377.31 1084.56C3377.31 1070.15 3346.98 1058.47 3309.57 1058.47C3272.16 1058.47 3241.83 1070.15 3241.83 1084.56C3241.83 1098.97 3272.16 1110.65 3309.57 1110.65Z" fill="white"/>
<path id="Vector_79" d="M3309.82 1058.47C3336.41 1058.47 3357.96 1050.17 3357.96 1039.94C3357.96 1029.71 3336.41 1021.42 3309.82 1021.42C3283.23 1021.42 3261.68 1029.71 3261.68 1039.94C3261.68 1050.17 3283.23 1058.47 3309.82 1058.47Z" fill="white"/>
</g></svg>